<svg width="35" height="35" viewBox="0 0 35 35" fill="none" xmlns="http://www.w3.org/2000/svg">
<path d="M5.83333 26.25H29.1667C29.9688 26.25 30.625 25.5938 30.625 24.7917C30.625 23.9896 29.9688 23.3333 29.1667 23.3333H5.83333C5.03125 23.3333 4.375 23.9896 4.375 24.7917C4.375 25.5938 5.03125 26.25 5.83333 26.25ZM5.83333 18.9583H29.1667C29.9688 18.9583 30.625 18.3021 30.625 17.5C30.625 16.6979 29.9688 16.0417 29.1667 16.0417H5.83333C5.03125 16.0417 4.375 16.6979 4.375 17.5C4.375 18.3021 5.03125 18.9583 5.83333 18.9583ZM4.375 10.2083C4.375 11.0104 5.03125 11.6667 5.83333 11.6667H29.1667C29.9688 11.6667 30.625 11.0104 30.625 10.2083C30.625 9.40625 29.9688 8.75 29.1667 8.75H5.83333C5.03125 8.75 4.375 9.40625 4.375 10.2083Z" fill="#4B4A49"/>
</svg>
