<svg width="36" height="36" viewBox="0 0 36 36" fill="none" xmlns="http://www.w3.org/2000/svg">
<g clip-path="url(#clip0_85_33)">
<path d="M33.62 17.53C30.25 11.3 24.34 7.53003 17.8 7.53003C11.26 7.53003 5.33997 11.3 1.99997 17.53L1.71997 18L1.97997 18.48C5.34997 24.71 11.26 28.48 17.8 28.48C24.34 28.48 30.26 24.76 33.62 18.48L33.88 18L33.62 17.53ZM17.8 26.43C12.17 26.43 6.99997 23.29 3.99997 18C6.99997 12.71 12.17 9.57003 17.8 9.57003C23.43 9.57003 28.54 12.72 31.59 18C28.54 23.29 23.42 26.43 17.8 26.43Z" fill="#FF0A41"/>
<path d="M18.09 11.17C16.7341 11.1799 15.4115 11.5914 14.2894 12.3525C13.1672 13.1136 12.2958 14.1901 11.7851 15.4462C11.2745 16.7023 11.1475 18.0815 11.4203 19.4097C11.693 20.738 12.3533 21.9555 13.3176 22.9087C14.2819 23.8619 15.5071 24.5079 16.8384 24.7652C18.1697 25.0225 19.5474 24.8794 20.7974 24.3542C22.0475 23.8289 23.1138 22.945 23.8618 21.8141C24.6098 20.6831 25.0059 19.3559 25 18C24.996 17.0974 24.814 16.2045 24.4644 15.3724C24.1148 14.5403 23.6044 13.7854 22.9625 13.1509C22.3205 12.5164 21.5597 12.0148 20.7236 11.6749C19.8875 11.335 18.9925 11.1634 18.09 11.17ZM18.09 22.89C17.1322 22.8801 16.1987 22.5875 15.4068 22.0488C14.6148 21.5101 13.9997 20.7495 13.6386 19.8623C13.2775 18.9752 13.1867 18.0011 13.3774 17.0625C13.5681 16.1239 14.0319 15.2626 14.7105 14.5867C15.3892 13.9108 16.2524 13.4505 17.1918 13.2636C18.1312 13.0768 19.1048 13.1716 19.9905 13.5363C20.8762 13.901 21.6343 14.5192 22.1697 15.3134C22.7052 16.1075 22.994 17.0422 23 18C23.0026 18.6446 22.8773 19.2833 22.6313 19.8791C22.3852 20.4749 22.0233 21.0159 21.5666 21.4708C21.1098 21.9256 20.5674 22.2853 19.9706 22.5289C19.3738 22.7726 18.7345 22.8953 18.09 22.89Z" fill="#FF0A41"/>
</g>
<defs>
<clipPath id="clip0_85_33">
<rect width="36" height="36" fill="white"/>
</clipPath>
</defs>
</svg>
